<svg xmlns="http://www.w3.org/2000/svg" viewBox="0 0 24 24" fill="none" stroke-linecap="round" stroke-linejoin="round">
  <defs>
    <linearGradient id="plat" x1="0" y1="0" x2="24" y2="24" gradientUnits="userSpaceOnUse">
      <stop offset="0%" stop-color="#C084FC"/>
      <stop offset="100%" stop-color="#6D28D9"/>
    </linearGradient>
  </defs>
  <path d="M12 3l6 2v6c0 4-6 8-6 8s-6-4-6-8V5z" fill="url(#plat)" opacity="0.15" stroke="url(#plat)" stroke-width="1.6"/>
  <path d="M12 1L21 6v7c0 5.5-9 10-9 10S3 18.5 3 13V6z" stroke="url(#plat)" stroke-width="1.6"/>
  <path d="M11 11c0-1.5-1-2-1.5-2s-1.5 1-1.5 2.5c0 1.5 1 2.5 2 2.5h1" stroke="url(#plat)" stroke-width="1.6"/>
  <path d="M13 11c0-1.5 1-2 1.5-2s1.5 1 1.5 2.5c0 1.5-1 2.5-2 2.5h-1" stroke="url(#plat)" stroke-width="1.6"/>
  <circle cx="9.5" cy="11" r="1.2" fill="url(#plat)"/>
  <circle cx="14.5" cy="11" r="1.2" fill="url(#plat)"/>
</svg>
