<svg xmlns="http://www.w3.org/2000/svg" viewBox="0 0 24 24" fill="currentColor">
  <!-- Left budgie (facing right, dynamic pose) -->
  <path d="M3.5 10c0-2 1.2-3.8 2.8-3.8s2.8 1.8 2.8 3.8c0 .7-.2 1.3-.5 1.9l.4 1c.1.2 0 .4-.2.5h-.4l-.2.6c-.1.2-.2.3-.4.3-.2 0-.4-.1-.5-.3l-.3-1c-.2.1-.5.1-.7.1-1.4 0-2.5-1.3-2.5-2.8z"/>
  <!-- Left bird head -->
  <circle cx="6.3" cy="7.5" r="2.5"/>
  <!-- Left bird beak -->
  <path d="M8.5 8l.9-.1c.15 0 .2.15.1.25l-.4.5c-.05.1-.15.1-.25.05l-.5-.35c-.1-.1-.05-.3.15-.35z"/>
  <!-- Left bird eye -->
  <circle cx="7" cy="7" r="0.8"/>
  <circle cx="7.25" cy="6.75" r="0.25" fill="white"/>
  <!-- Left head markings -->
  <path d="M4.8 6.2c.6-.2 1.3-.3 1.8-.2" stroke="currentColor" stroke-width="0.5" stroke-linecap="round" fill="none"/>
  <!-- Left wing accent -->
  <path d="M4.5 9.5c1 .4 1.8.1 2.5-.5" stroke="currentColor" stroke-width="0.5" stroke-linecap="round" fill="none"/>
  <path d="M4.8 10.5c.8.3 1.5.1 2-.4" stroke="currentColor" stroke-width="0.5" stroke-linecap="round" fill="none"/>
  <!-- Left tail -->
  <path d="M3.2 11.5c-.6 1-.9 2-.7 2.8.05.2.2.2.25 0l.8-1.8c.05-.15 0-.3-.15-.25z"/>

  <!-- Right budgie (facing left, dynamic pose) -->
  <path d="M20.5 10c0-2-1.2-3.8-2.8-3.8s-2.8 1.8-2.8 3.8c0 .7.2 1.3.5 1.9l-.4 1c-.1.2 0 .4.2.5h.4l.2.6c.1.2.2.3.4.3.2 0 .4-.1.5-.3l.3-1c.2.1.5.1.7.1 1.4 0 2.5-1.3 2.5-2.8z"/>
  <!-- Right bird head -->
  <circle cx="17.7" cy="7.5" r="2.5"/>
  <!-- Right bird beak -->
  <path d="M15.5 8l-.9-.1c-.15 0-.2.15-.1.25l.4.5c.05.1.15.1.25.05l.5-.35c.1-.1.05-.3-.15-.35z"/>
  <!-- Right bird eye -->
  <circle cx="17" cy="7" r="0.8"/>
  <circle cx="17.25" cy="6.75" r="0.25" fill="white"/>
  <!-- Right head markings -->
  <path d="M19.2 6.2c-.6-.2-1.3-.3-1.8-.2" stroke="currentColor" stroke-width="0.5" stroke-linecap="round" fill="none"/>
  <!-- Right wing accent -->
  <path d="M19.5 9.5c-1 .4-1.8.1-2.5-.5" stroke="currentColor" stroke-width="0.5" stroke-linecap="round" fill="none"/>
  <path d="M19.2 10.5c-.8.3-1.5.1-2-.4" stroke="currentColor" stroke-width="0.5" stroke-linecap="round" fill="none"/>
  <!-- Right tail -->
  <path d="M20.8 11.5c.6 1 .9 2 .7 2.8-.05.2-.2.2-.25 0l-.8-1.8c-.05-.15 0-.3.15-.25z"/>

  <!-- Bold heart between them -->
  <path d="M12 15.5l-1.1-1C9.2 13 8.2 12.1 8.2 11c0-.9.7-1.6 1.6-1.6.5 0 1 .25 1.3.6l.9 1 .9-1c.3-.35.8-.6 1.3-.6.9 0 1.6.7 1.6 1.6 0 1.1-1 2-2.7 3.5z"/>

  <!-- Radiating pulse lines from heart -->
  <path d="M12 8.5V7.2" stroke="currentColor" stroke-width="0.6" stroke-linecap="round" fill="none"/>
  <path d="M14.2 9.2l.8-.8" stroke="currentColor" stroke-width="0.6" stroke-linecap="round" fill="none"/>
  <path d="M9.8 9.2l-.8-.8" stroke="currentColor" stroke-width="0.6" stroke-linecap="round" fill="none"/>
  <path d="M12 16.8v1" stroke="currentColor" stroke-width="0.5" stroke-linecap="round" fill="none"/>
  <path d="M14.5 15l.7.5" stroke="currentColor" stroke-width="0.5" stroke-linecap="round" fill="none"/>
  <path d="M9.5 15l-.7.5" stroke="currentColor" stroke-width="0.5" stroke-linecap="round" fill="none"/>

  <!-- Perch line -->
  <path d="M2.5 18h19" stroke="currentColor" stroke-width="0.7" stroke-linecap="round" fill="none"/>
  <!-- Feet -->
  <path d="M5.5 13.5l-.3 4.5M6.5 13.5l.2 4.5" stroke="currentColor" stroke-width="0.45" stroke-linecap="round" fill="none"/>
  <path d="M17.5 13.5l-.2 4.5M18.5 13.5l.3 4.5" stroke="currentColor" stroke-width="0.45" stroke-linecap="round" fill="none"/>
</svg>
