<svg xmlns="http://www.w3.org/2000/svg" viewBox="0 0 24 24" fill="currentColor">
  <path d="M12 14c-3.31 0-6 2.01-6 4.5v.5c0 1.1 2.69 2 6 2s6-.9 6-2v-.5c0-2.49-2.69-4.5-6-4.5zm0 6c-2.76 0-5-.67-5-1.5v-.08c.82.63 2.72 1.08 5 1.08s4.18-.45 5-1.08v.08c0 .83-2.24 1.5-5 1.5zm0-5c2.53 0 4.63 1.46 4.95 3.34C15.84 17.58 14.03 17 12 17s-3.84.58-4.95 1.34C7.37 16.46 9.47 15 12 15z"/>
  <path d="M10.5 5C9.4 5 8.5 6.12 8.5 7.5S9.4 10 10.5 10h3c1.1 0 2-.9 2-2.5S14.6 5 13.5 5zm3 4h-3c-.55 0-1-.67-1-1.5S10 6 10.5 6h3c.55 0 1 .67 1 1.5S14.05 9 13.5 9z"/>
  <path d="M10.5 10.5c-.83 0-1.5.45-1.5 1v1c0 .55.67 1 1.5 1h3c.83 0 1.5-.45 1.5-1v-1c0-.55-.67-1-1.5-1z"/>
  <path d="M17.5 4.5l-4 4-2-2" fill="none" stroke="currentColor" stroke-width="2" stroke-linecap="round" stroke-linejoin="round"/>
</svg>
