<svg xmlns="http://www.w3.org/2000/svg" viewBox="0 0 24 24" fill="currentColor">
  <path d="M12 10c-2.76 0-5 2.69-5 6s2.24 6 5 6 5-2.69 5-6-2.24-6-5-6zm0 10.5c-1.93 0-3.5-2.02-3.5-4.5s1.57-4.5 3.5-4.5 3.5 2.02 3.5 4.5-1.57 4.5-3.5 4.5z"/>
  <path d="M8.5 7c-.28 0-.5-.22-.5-.5v-3c0-.28.22-.5.5-.5s.5.22.5.5v3c0 .28-.22.5-.5.5zM12 6c-.28 0-.5-.22-.5-.5v-4c0-.28.22-.5.5-.5s.5.22.5.5v4c0 .28-.22.5-.5.5zM15.5 7c-.28 0-.5-.22-.5-.5v-3c0-.28.22-.5.5-.5s.5.22.5.5v3c0 .28-.22.5-.5.5z"/>
  <path d="M9 8.5c-.2 0-.38-.12-.46-.31l-.5-1c-.12-.25-.02-.55.23-.67s.55-.02.67.23l.5 1c.12.25.02.55-.23.67-.07.05-.14.08-.21.08zM15 8.5c-.07 0-.14-.03-.21-.08-.25-.12-.35-.42-.23-.67l.5-1c.12-.25.42-.35.67-.23s.35.42.23.67l-.5 1c-.08.19-.26.31-.46.31z"/>
</svg>
