<svg xmlns="http://www.w3.org/2000/svg" viewBox="0 0 24 24" fill="currentColor">
  <path d="M12 8c-4.42 0-8 2.69-8 6v1c0 1.66 3.58 3 8 3s8-1.34 8-3v-1c0-3.31-3.58-6-8-6zm0 9c-3.87 0-7-1.12-7-2v-.36c1.26.86 3.9 1.36 7 1.36s5.74-.5 7-1.36V15c0 .88-3.13 2-7 2zm0-8c3.53 0 6.43 1.84 6.93 4.16C17.74 12.44 15.06 12 12 12s-5.74.44-6.93 1.16C5.57 10.84 8.47 9 12 9z"/>
  <path d="M8.5 12.5c-.28 0-.5.13-.5.3 0 .17.22.3.5.3h7c.28 0 .5-.13.5-.3 0-.17-.22-.3-.5-.3zM7 14c-.28 0-.5.13-.5.3 0 .17.22.3.5.3h10c.28 0 .5-.13.5-.3 0-.17-.22-.3-.5-.3z"/>
  <path d="M10 6.5c0-.83.67-1.5 1.5-1.5h1c.83 0 1.5.67 1.5 1.5V8h-1V6.5c0-.28-.22-.5-.5-.5h-1c-.28 0-.5.22-.5.5V8h-1z"/>
</svg>
