<svg xmlns="http://www.w3.org/2000/svg" viewBox="0 0 24 24" fill="currentColor">
  <!-- Left budgie (facing right) -->
  <path d="M4.5 8.5c0-2.2 1.3-4 3-4s3 1.8 3 4c0 .8-.2 1.5-.6 2.1l.6 1.4c.1.3 0 .5-.2.6-.1.1-.2.1-.3.1h-.5l-.3.8c-.1.2-.3.4-.5.4h-.2c-.3 0-.5-.2-.6-.4L7.5 12c-.3.1-.6.2-1 .2C5 12.2 3.5 10.7 3.5 8.8z"/>
  <!-- Left bird beak -->
  <path d="M10.2 7.8l1.1-.3c.2-.1.3.1.2.3l-.5.8c-.1.1-.2.2-.3.1l-.7-.5c-.1-.1-.1-.3.2-.4z"/>
  <!-- Left bird eye -->
  <circle cx="7" cy="7.2" r="0.9"/>
  <circle cx="7.3" cy="6.9" r="0.28" fill="white"/>
  <!-- Left bird wing accent -->
  <path d="M5.5 9.5c1.2.3 2.2-.1 3-1" stroke="currentColor" stroke-width="0.5" stroke-linecap="round" fill="none"/>
  <path d="M5.8 10.3c1 .2 1.8-.1 2.5-.7" stroke="currentColor" stroke-width="0.5" stroke-linecap="round" fill="none"/>
  <!-- Left bird tail -->
  <path d="M4 10.5c-.8 1.2-1.2 2.5-1 3.5.1.3.3.3.4.1l1.2-2.2c.1-.2 0-.4-.2-.4z"/>

  <!-- Right budgie (facing left, mirrored) -->
  <path d="M19.5 8.5c0-2.2-1.3-4-3-4s-3 1.8-3 4c0 .8.2 1.5.6 2.1l-.6 1.4c-.1.3 0 .5.2.6.1.1.2.1.3.1h.5l.3.8c.1.2.3.4.5.4h.2c.3 0 .5-.2.6-.4l.4-1.4c.3.1.6.2 1 .2 1.5 0 3-1.5 3-3.4z"/>
  <!-- Right bird beak -->
  <path d="M13.8 7.8l-1.1-.3c-.2-.1-.3.1-.2.3l.5.8c.1.1.2.2.3.1l.7-.5c.1-.1.1-.3-.2-.4z"/>
  <!-- Right bird eye -->
  <circle cx="17" cy="7.2" r="0.9"/>
  <circle cx="17.3" cy="6.9" r="0.28" fill="white"/>
  <!-- Right bird wing accent -->
  <path d="M18.5 9.5c-1.2.3-2.2-.1-3-1" stroke="currentColor" stroke-width="0.5" stroke-linecap="round" fill="none"/>
  <path d="M18.2 10.3c-1 .2-1.8-.1-2.5-.7" stroke="currentColor" stroke-width="0.5" stroke-linecap="round" fill="none"/>
  <!-- Right bird tail -->
  <path d="M20 10.5c.8 1.2 1.2 2.5 1 3.5-.1.3-.3.3-.4.1l-1.2-2.2c-.1-.2 0-.4.2-.4z"/>

  <!-- Heart between them -->
  <path d="M12 13.8l-.6-.55C10.2 12.15 9.5 11.5 9.5 10.7c0-.65.5-1.15 1.15-1.15.36 0 .71.17.95.43l.4.46.4-.46c.24-.26.59-.43.95-.43.65 0 1.15.5 1.15 1.15 0 .8-.7 1.45-1.9 2.55z"/>

  <!-- Perch line -->
  <path d="M3 16.5h18" stroke="currentColor" stroke-width="0.7" stroke-linecap="round" fill="none"/>
  <!-- Left feet -->
  <path d="M6.5 12.5l-.5 4M7.5 12.5l.3 4" stroke="currentColor" stroke-width="0.5" stroke-linecap="round" fill="none"/>
  <!-- Right feet -->
  <path d="M16.5 12.5l-.3 4M17.5 12.5l.5 4" stroke="currentColor" stroke-width="0.5" stroke-linecap="round" fill="none"/>
</svg>
