<svg xmlns="http://www.w3.org/2000/svg" viewBox="0 0 24 24" fill="currentColor">
  <path d="M7.5 4C6.12 4 5 5.12 5 6.5c0 .93.5 1.73 1.25 2.16C5.5 9.2 5 10.05 5 11v1.5c0 .28.22.5.5.5s.5-.22.5-.5V11c0-.83.67-1.5 1.5-1.5.28 0 .5-.22.5-.5S7.78 8.5 7.5 8.5c-.56 0-1.08-.19-1.5-.5C5.67 7.72 5.5 7.14 5.5 6.5 5.5 5.4 6.4 4.5 7.5 4.5S9.5 5.4 9.5 6.5c0 .28.22.5.5.5s.5-.22.5-.5C10.5 5.12 9.38 4 7.5 4zM16.5 4c-1.88 0-3 1.12-3 2.5 0 .28.22.5.5.5s.5-.22.5-.5c0-1.1.9-2 2-2s2 .9 2 2c0 .64-.17 1.22-.5 1.5-.42.31-.94.5-1.5.5-.28 0-.5.22-.5.5s.22.5.5.5c.83 0 1.5.67 1.5 1.5v1.5c0 .28.22.5.5.5s.5-.22.5-.5V11c0-.95-.5-1.8-1.25-2.34C18.5 8.23 19 7.43 19 6.5 19 5.12 17.88 4 16.5 4z"/>
  <path d="M12 10c-.28 0-.5.22-.5.5v.5h-1c-.28 0-.5.22-.5.5s.22.5.5.5h1v.5c0 .28.22.5.5.5s.5-.22.5-.5V12h1c.28 0 .5-.22.5-.5s-.22-.5-.5-.5h-1v-.5c0-.28-.22-.5-.5-.5zM6.5 14c-1.1 0-2 .45-2.6 1.2-.4.5-.55 1.1-.55 1.8v2.5c0 .28.22.5.5.5s.5-.22.5-.5V17c0-.5.1-.9.35-1.2.4-.5 1.05-.8 1.8-.8h.5c.28 0 .5-.22.5-.5s-.22-.5-.5-.5zm11 0c-.28 0-.5.22-.5.5s.22.5.5.5h.5c.75 0 1.4.3 1.8.8.25.3.35.7.35 1.2v2.5c0 .28.22.5.5.5s.5-.22.5-.5V17c0-.7-.15-1.3-.55-1.8-.6-.75-1.5-1.2-2.6-1.2z"/>
</svg>
