<svg xmlns="http://www.w3.org/2000/svg" viewBox="0 0 24 24" fill="currentColor">
  <!-- Generic simple bird silhouette -->
  <path d="M10 5c-1.2 0-2.2 0.7-2.2 1.8 0 0.5 0.2 1 0.6 1.4C6.8 8.8 5.5 10.3 5.5 12.3c0 2.5 1.8 4.3 4.8 4.5"/>
  <path d="M10.5 4.5c-1.3 0-2.3 0.8-2.3 2 0 0.6 0.3 1.1 0.7 1.5C7.2 8.6 6 10.2 6 12.2c0 2.8 2 4.6 5 4.8 2.2 0 3.8-1 4.5-2.5 0.3-0.6 0.3-1.3 0.2-2-0.2-1.3-1-2.4-2.2-3 0.3-0.4 0.5-0.9 0.5-1.5 0-1.2-1-2-2.2-2z"/>
  <!-- Eye -->
  <circle cx="12.2" cy="6" r="0.8"/>
  <circle cx="12.5" cy="5.7" r="0.25" fill="white"/>
  <!-- Simple beak -->
  <path d="M13.8 6.2c0.5-0.05 0.9 0.1 1 0.35 0.05 0.15-0.05 0.28-0.18 0.3L13.5 6.7z"/>
  <!-- Wing line -->
  <line x1="7.5" y1="11" x2="11.5" y2="10" stroke="currentColor" stroke-width="0.5" stroke-linecap="round" fill="none"/>
  <!-- Simple tail -->
  <path d="M7 13.5c-1 0.8-1.5 2-1.8 3-0.05 0.18 0.08 0.28 0.2 0.2 0.7-0.6 1.2-1.4 1.7-2.3z" opacity="0.6"/>
  <!-- Legs -->
  <line x1="9.5" y1="16.5" x2="9" y2="18.5" stroke="currentColor" stroke-width="0.6" stroke-linecap="round" fill="none"/>
  <line x1="11.5" y1="16.5" x2="12" y2="18.5" stroke="currentColor" stroke-width="0.6" stroke-linecap="round" fill="none"/>
  <!-- Question mark -->
  <path d="M18 4.5c0.8-0.3 1.6-0.2 2 0.3 0.5 0.5 0.3 1.3-0.2 1.8-0.3 0.3-0.7 0.5-1 0.8-0.2 0.2-0.3 0.5-0.3 0.8" fill="none" stroke="currentColor" stroke-width="1.2" stroke-linecap="round"/>
  <circle cx="18.5" cy="9.5" r="0.6"/>
  <!-- Body dimension -->
  <ellipse cx="10" cy="12.5" rx="2.8" ry="3" opacity="0.07"/>
</svg>
