<svg xmlns="http://www.w3.org/2000/svg" viewBox="0 0 24 24" fill="none" stroke="currentColor" stroke-width="1.6" stroke-linecap="round" stroke-linejoin="round">
  <circle cx="12.8" cy="6" r="2.9"/>
  <path d="M9.4 8.7C7 9.2 5.5 11 5.5 13.5c0 2.8 1.8 4.6 4.7 4.6h2.4c2.1 0 3.8-1 4.4-2.8.5-1.5-.1-3.1-1.6-4.3"/>
  <circle cx="13.3" cy="5.6" r=".75" fill="currentColor"/>
  <path d="M15.1 6.1 16.6 5.8l-1.3.9"/>
  <path d="M7.9 10.7c1.6-.4 3.1-.1 4.5.7" stroke-width="1" opacity=".35"/>
  <path d="M7.8 12.2c1.4-.2 2.7 0 3.9.7" stroke-width=".8" opacity=".25"/>
  <path d="M8.1 15.8 5.1 19.8"/>
  <path d="M18.2 4.5c.8-.3 1.7-.2 2.2.4.5.6.2 1.4-.4 1.9-.5.4-1 .7-1 1.2" stroke-width="1.4"/>
  <circle cx="19.1" cy="9.6" r=".7" fill="currentColor"/>
</svg>
