<svg xmlns="http://www.w3.org/2000/svg" width="24" height="24" viewBox="0 0 24 24" fill="none" stroke="currentColor" stroke-width="1.8" stroke-linecap="round" stroke-linejoin="round">
  <!-- Generic bird silhouette with question mark indicator -->
  <!-- Body -->
  <path d="M10 7c-2 .2-3.5 1.5-3.5 3.5 0 1.5.5 2.8 1.5 3.8l-.5 1.5-.5 2h2l.5-1.5.5.2c1.2 0 2.3-.5 3.2-1.2 1.2-1 2-2.5 2-4.3 0-2-1.2-3.2-2.8-4-.5-.8-1.5-1.2-2.5-1.2z"/>
  <!-- Eye -->
  <circle cx="13" cy="9.5" r=".9" fill="currentColor" stroke="none"/>
  <!-- Simple beak -->
  <path d="M15.5 9l2-1"/>
  <path d="M15.5 10.2l1.8.5"/>
  <!-- Wing -->
  <path d="M8 11c1.5-.2 3.5 0 4.5.5"/>
  <!-- Tail -->
  <path d="M7 13l-1.5 2"/>
  <path d="M7.5 13.5l-.5 2.5"/>
  <!-- Question mark badge (top-right) -->
  <circle cx="20" cy="5" r="3.5" stroke-width="1.5" fill="none"/>
  <path d="M18.8 3.8c0-.6.5-1 1.2-1s1.2.5 1.2 1c0 .8-1.2 1-1.2 1.7" stroke-width="1.5"/>
  <circle cx="20" cy="6.5" r=".4" fill="currentColor" stroke="none"/>
</svg>