<svg xmlns="http://www.w3.org/2000/svg" width="24" height="24" viewBox="0 0 24 24" fill="none" stroke="currentColor" stroke-width="1.5" stroke-linecap="round" stroke-linejoin="round">
  <!-- More Professional/Realistic Budgie Outline -->
  <!-- Head & Curve of Back -->
  <path d="M12.5 3c-2.5 0-4.5 1.8-4.5 4.5 0 1.2.3 2.2.8 3.2-1.2 2-2 4.5-2 6.8 0 1.5.5 2.5 1 3.5l-1 2.5h2.5l.5-1.5c1.2.3 2.5.4 3.5.4 3-1.5 5.5-4.5 5.8-9 0-2.8-1.5-5.5-3.5-7.5-1-.8-2-1.5-3.1-2.9z"/>
  
  <!-- Eye with highlight -->
  <circle cx="14" cy="7.5" r="1.2" fill="currentColor" stroke="none"/>
  
  <!-- Beak & Cere -->
  <path d="M16 6.5A1.5 1.5 0 0 1 17.5 7c.8.5 1.5 1 2 2-.8 0-1.5.5-2 1"/>
  <path d="M16 9c.5.5.8 1 1 1.5-1 0-1.5-.5-2-1"/>
  
  <!-- Cere Detail -->
  <circle cx="15.8" cy="7" r="0.8" stroke-width="1"/>
  
  <!-- Wing & Feathers -->
  <path d="M8.5 11.5c3.5-1 7.5-.5 10 2.5"/>
  <path d="M9 13.5c2.5-.5 6 0 8 2"/>
  <path d="M10.5 15.5c2 0 4 .5 5.5 1.5"/>
  
  <!-- Tail -->
  <path d="M7.5 17.5L3.5 23l1.5.5 4-5.5"/>
  <path d="M8 16l-3.5 6 1 .5 3.5-5.5"/>
  
  <!-- Cheek Patch -->
  <path d="M12.5 10.5a1.5 1.5 0 1 0 0-3 1.5 1.5 0 0 0 0 3z" stroke-width="1.2"/>
</svg>