<svg xmlns="http://www.w3.org/2000/svg" viewBox="0 0 24 24" fill="currentColor">
  <!-- Nest bowl shape with woven texture -->
  <path d="M3 15c0.5 3 3.5 5.5 9 5.5s8.5-2.5 9-5.5c0.1-0.5-0.2-0.8-0.5-0.5-1 0.8-3 1.5-5 1.8"/>
  <!-- Nest outer shape -->
  <path d="M2.5 14.5c0.3 3.5 4 6 9.5 6s9.2-2.5 9.5-6c0.05-0.3-0.1-0.4-0.3-0.2-0.8 0.5-2 1-3.5 1.3-1.5 0.3-3.2 0.5-5 0.5h-1.5c-1.8 0-3.5-0.2-5-0.5-1.5-0.3-2.7-0.8-3.5-1.3-0.2-0.12-0.35-0.05-0.2 0.2z"/>
  <!-- Woven texture lines on nest -->
  <path d="M4 16c1.5 0.8 3.5 1.3 6 1.5" fill="none" stroke="currentColor" stroke-width="0.4" stroke-linecap="round" opacity="0.25"/>
  <path d="M5 17.5c1.5 0.6 3.5 1 6 1" fill="none" stroke="currentColor" stroke-width="0.4" stroke-linecap="round" opacity="0.2"/>
  <path d="M14 17.5c1.5-0.2 3-0.6 4.5-1.2" fill="none" stroke="currentColor" stroke-width="0.4" stroke-linecap="round" opacity="0.25"/>
  <path d="M13 18.5c1.5-0.1 3-0.4 4.5-1" fill="none" stroke="currentColor" stroke-width="0.4" stroke-linecap="round" opacity="0.2"/>
  <!-- Cross-weave hints -->
  <path d="M7 15.5c0 0.8 0.2 1.5 0.5 2.2" fill="none" stroke="currentColor" stroke-width="0.3" stroke-linecap="round" opacity="0.15"/>
  <path d="M10 15.2c0 0.8 0.1 1.8 0.2 2.5" fill="none" stroke="currentColor" stroke-width="0.3" stroke-linecap="round" opacity="0.15"/>
  <path d="M14 15.2c0 0.8-0.05 1.8-0.1 2.5" fill="none" stroke="currentColor" stroke-width="0.3" stroke-linecap="round" opacity="0.15"/>
  <path d="M17 15.5c0 0.6-0.15 1.2-0.4 1.8" fill="none" stroke="currentColor" stroke-width="0.3" stroke-linecap="round" opacity="0.15"/>
  <!-- Budgie sitting in nest -->
  <!-- Bird body -->
  <path d="M11 6c-1.2 0-2.2 0.7-2.2 1.8 0 0.5 0.2 1 0.6 1.3C8 9.7 7 11 7 12.5c0 1.8 1.3 3 3.5 3.2h3c2.2-0.2 3.5-1.4 3.5-3.2 0-1.5-1-2.8-2.4-3.4 0.4-0.3 0.6-0.8 0.6-1.3 0-1.1-1-1.8-2.2-1.8z"/>
  <!-- Bird eye -->
  <circle cx="13" cy="7.8" r="0.85"/>
  <circle cx="13.3" cy="7.5" r="0.28" fill="white"/>
  <!-- Bird beak -->
  <path d="M14.5 8c0.5-0.05 0.9 0.1 1 0.35 0.05 0.15-0.05 0.3-0.18 0.32L14.2 8.5z"/>
  <!-- Wing accent -->
  <line x1="8.5" y1="11.5" x2="12.5" y2="10.5" stroke="currentColor" stroke-width="0.5" stroke-linecap="round" fill="none"/>
  <line x1="8.8" y1="12.8" x2="13" y2="11.8" stroke="currentColor" stroke-width="0.5" stroke-linecap="round" fill="none"/>
  <!-- Head bump -->
  <path d="M10 6.5c0.3-0.3 0.7-0.5 1-0.5s0.7 0.2 1 0.5c-0.3 0.15-0.6 0.2-1 0.2s-0.7-0.05-1-0.2z" opacity="0.12"/>
  <!-- Bird body dimension -->
  <ellipse cx="11.5" cy="12" rx="2.8" ry="2.2" opacity="0.07"/>
</svg>
