<svg xmlns="http://www.w3.org/2000/svg" viewBox="0 0 24 24" fill="currentColor">
  <!-- Plump round body -->
  <path d="M10.5 7.5c-3 0.5-5 2.8-5 5.5 0 2.2 1 3.8 2.5 4.8"/>
  <path d="M8 17.8l-0.3 1.4c-0.05 0.25 0.1 0.5 0.35 0.5h1.1c0.2 0 0.35-0.15 0.38-0.35L9.8 18"/>
  <path d="M12.2 18.2l0.25 1.45c0.03 0.2 0.18 0.35 0.38 0.35h1.1c0.25 0 0.4-0.25 0.35-0.5l-0.3-1.4"/>
  <!-- Main body + head combined shape -->
  <path d="M11.8 2.5c-1.8 0-3.2 1.1-3.2 2.8 0 1 0.4 1.8 1 2.4C7.2 8.5 5.5 10.5 5.5 13c0 3.2 2.5 5.5 6 5.5s6-2.3 6-5.5c0-2.5-1.7-4.5-4.1-5.3 0.6-0.6 1-1.4 1-2.4 0-1.7-1.4-2.8-3.2-2.8z"/>
  <!-- Head bump/cere -->
  <path d="M10.2 3.2c0.4-0.5 1-0.7 1.6-0.7s1.2 0.2 1.6 0.7c-0.5 0.3-1 0.4-1.6 0.4s-1.1-0.1-1.6-0.4z" opacity="0.15"/>
  <!-- Cheek patches (budgie characteristic) -->
  <circle cx="9.5" cy="6" r="0.9" opacity="0.1"/>
  <circle cx="14.1" cy="6" r="0.9" opacity="0.1"/>
  <!-- Eye -->
  <circle cx="13.5" cy="4.5" r="1"/>
  <circle cx="13.8" cy="4.2" r="0.3" fill="white"/>
  <!-- Beak pointing right -->
  <path d="M15.2 5.2c0.6-0.1 1.2 0.2 1.4 0.6 0.15 0.25 0 0.5-0.25 0.55l-1.55 0.15c-0.15 0-0.2-0.15-0.1-0.25l0.5-1.05z"/>
  <!-- Wing accent lines -->
  <line x1="7" y1="11.5" x2="12.5" y2="10" stroke="currentColor" stroke-width="0.5" stroke-linecap="round" fill="none"/>
  <line x1="7.3" y1="13" x2="13" y2="11.5" stroke="currentColor" stroke-width="0.5" stroke-linecap="round" fill="none"/>
  <line x1="7.8" y1="14.3" x2="13" y2="13" stroke="currentColor" stroke-width="0.5" stroke-linecap="round" fill="none"/>
  <!-- Tail feathers -->
  <path d="M7 15.5c-1.2 1-2.2 2.5-2.8 4 -0.1 0.2 0.05 0.35 0.2 0.25 1-0.8 1.8-2 2.6-3.3z" opacity="0.7"/>
  <path d="M6.5 14.8c-1.5 0.8-2.8 2.2-3.5 3.8-0.1 0.2 0 0.35 0.2 0.25 1.2-0.6 2.3-1.6 3.1-2.9z" opacity="0.5"/>
  <!-- Subtle body dimension -->
  <ellipse cx="11.5" cy="13" rx="3.5" ry="3" opacity="0.07"/>
  <!-- Legs -->
  <line x1="9.2" y1="18" x2="9.2" y2="19.5" stroke="currentColor" stroke-width="0.6" stroke-linecap="round" fill="none"/>
  <line x1="12.8" y1="18" x2="12.8" y2="19.5" stroke="currentColor" stroke-width="0.6" stroke-linecap="round" fill="none"/>
</svg>
