<svg xmlns="http://www.w3.org/2000/svg" viewBox="0 0 24 24" fill="none" stroke="currentColor" stroke-width="1.6" stroke-linecap="round" stroke-linejoin="round">
  <path d="M3.5 15.5c1.3 2.9 4.1 4.5 8.5 4.5s7.2-1.6 8.5-4.5"/>
  <path d="M5.2 15.8c1.8.8 4.2 1.3 6.8 1.3s5-.5 6.8-1.3" stroke-width="1" opacity=".35"/>
  <path d="M7.3 17.4c1.5.4 3.1.6 4.7.6s3.2-.2 4.7-.6" stroke-width="1" opacity=".25"/>
  <circle cx="13.3" cy="8.2" r="2.7"/>
  <path d="M9.7 10.4C8 10.9 7 12.1 7 13.7c0 1.9 1.4 3.1 3.7 3.3h2.4c2 0 3.4-.9 3.9-2.5.3-1.1-.1-2.3-1.3-3.2"/>
  <circle cx="13.8" cy="7.8" r=".72" fill="currentColor"/>
  <path d="M15.4 8.2 16.8 7.9l-1.2.9"/>
  <path d="M8.8 12.3c1.4-.3 2.8 0 4 .7" stroke-width="1" opacity=".35"/>
  <ellipse cx="10.6" cy="18" rx="1" ry=".7" fill="currentColor" opacity=".12"/>
  <ellipse cx="13.2" cy="18" rx="1" ry=".7" fill="currentColor" opacity=".12"/>
</svg>
