<svg xmlns="http://www.w3.org/2000/svg" viewBox="0 0 24 24" fill="none" stroke="currentColor" stroke-width="1.6" stroke-linecap="round" stroke-linejoin="round">
  <circle cx="13.5" cy="5.5" r="3"/>
  <path d="M10 8.4C7.6 8.9 6 10.8 6 13.3c0 2.9 1.9 4.7 4.9 4.7h2.6c2.2 0 3.9-1 4.5-2.9.5-1.5-.1-3.2-1.8-4.4"/>
  <circle cx="14" cy="5.1" r=".8" fill="currentColor"/>
  <ellipse cx="15.7" cy="5.7" rx="1" ry=".6" fill="currentColor" opacity=".22"/>
  <path d="M16.5 6.2 18 6l-1.4.9"/>
  <path d="M8.3 10.2c1.7-.4 3.5 0 5 .9" stroke-width="1" opacity=".35"/>
  <path d="M7.8 11.8c1.5-.3 3 .1 4.4.8" stroke-width=".8" opacity=".25"/>
  <path d="M8.5 16.2 5 21.3"/>
  <path d="M9.5 16.6 6.4 21"/>
  <path d="M10.6 17h3.8" stroke-width="1.2" opacity=".3"/>
</svg>
