<svg xmlns="http://www.w3.org/2000/svg" viewBox="0 0 24 24" fill="none" stroke="currentColor" stroke-width="1.6" stroke-linecap="round" stroke-linejoin="round">
  <circle cx="14" cy="5.3" r="2.8"/>
  <path d="M12.8 3.1c0-.8.3-1.6.8-2.1" stroke-width="1.2"/>
  <path d="M14 2.8c.3-.8.8-1.4 1.4-1.8" stroke-width="1.2"/>
  <path d="M10.7 8.3C8.5 8.9 7 10.6 7 13c0 2.7 1.7 4.5 4.4 4.7H14c2 0 3.7-.9 4.3-2.6.6-1.6.1-3.5-1.5-4.8"/>
  <circle cx="14.5" cy="4.9" r=".75" fill="currentColor"/>
  <path d="M16.2 5.4 17.8 5l-1.4 1"/>
  <path d="M9 10c1.4-.3 2.9 0 4.2.7" stroke-width="1" opacity=".35"/>
  <path d="M8.6 11.5c1.3-.2 2.7.1 3.8.7" stroke-width=".8" opacity=".25"/>
  <path d="M9 15.3 5.7 21.4"/>
  <path d="M9.9 15.7 6.9 21"/>
  <path d="M10.8 16.1 8.3 20.2" stroke-width="1.1" opacity=".55"/>
</svg>
