<svg xmlns="http://www.w3.org/2000/svg" viewBox="0 0 24 24" fill="currentColor">
  <!-- Canary - slimmer elongated body, small upright crest, longer tail -->
  <!-- Main body + head -->
  <path d="M13 3.5c-1.2 0-2.2 0.7-2.2 1.8 0 0.5 0.2 1 0.5 1.3C9.5 7.2 8.2 8.8 8.2 10.8c0 2.5 1.8 4.2 4.5 4.5"/>
  <path d="M13.5 3c-1.4 0-2.5 0.9-2.5 2.1 0 0.7 0.3 1.2 0.8 1.6-1.8 0.8-3 2.3-3 4.3 0 2.8 2 4.8 5.2 4.8 2.2 0 3.8-1 4.5-2.8 0.3-0.7 0.3-1.5 0.2-2.3-0.3-1.5-1.2-2.7-2.5-3.3 0.3-0.4 0.5-0.9 0.5-1.5 0-1.3-1.2-2.2-2.5-2.2z"/>
  <!-- Small upright crest -->
  <path d="M12.5 3c-0.2-0.8 0-1.5 0.5-2 0.15-0.15 0.3-0.05 0.25 0.15-0.1 0.5-0.1 1 0 1.5z" opacity="0.7"/>
  <path d="M13.5 3c0.1-0.7 0.4-1.3 0.8-1.7 0.12-0.12 0.25 0 0.2 0.15-0.15 0.5-0.2 1-0.15 1.5z" opacity="0.5"/>
  <!-- Eye -->
  <circle cx="14.8" cy="4.8" r="0.85"/>
  <circle cx="15.1" cy="4.5" r="0.28" fill="white"/>
  <!-- Beak - slim and pointed -->
  <path d="M16.5 5c0.7-0.1 1.2 0.1 1.4 0.35 0.1 0.15 0 0.3-0.15 0.35l-1.5 0.1z"/>
  <!-- Wing accent lines -->
  <line x1="9.5" y1="10" x2="14" y2="8.8" stroke="currentColor" stroke-width="0.5" stroke-linecap="round" fill="none"/>
  <line x1="9.8" y1="11.3" x2="14.5" y2="10.2" stroke="currentColor" stroke-width="0.5" stroke-linecap="round" fill="none"/>
  <!-- Longer tail feathers (canary characteristic) -->
  <path d="M9.5 13c-1.5 1.5-2.5 3.5-3 5.5-0.05 0.2 0.1 0.3 0.25 0.2 1-1 1.8-2.5 2.5-4z" opacity="0.7"/>
  <path d="M9 12.5c-1.8 1-3 3-3.5 5-0.05 0.2 0.08 0.35 0.22 0.25 1.2-0.8 2.3-2 3-3.5z" opacity="0.55"/>
  <path d="M8.5 12c-2 0.8-3.5 2.2-4.2 4-0.08 0.2 0.05 0.35 0.2 0.25 1.3-0.5 2.5-1.5 3.5-2.8z" opacity="0.4"/>
  <!-- Legs -->
  <line x1="12.5" y1="15" x2="12" y2="18" stroke="currentColor" stroke-width="0.6" stroke-linecap="round" fill="none"/>
  <line x1="14.5" y1="15" x2="15" y2="18" stroke="currentColor" stroke-width="0.6" stroke-linecap="round" fill="none"/>
  <!-- Feet -->
  <path d="M12 18c-0.3 0.3-0.5 0.5-0.7 0.4" fill="none" stroke="currentColor" stroke-width="0.5" stroke-linecap="round"/>
  <path d="M12 18c0.15 0.3 0.3 0.5 0.25 0.6" fill="none" stroke="currentColor" stroke-width="0.5" stroke-linecap="round"/>
  <path d="M15 18c0.3 0.3 0.5 0.5 0.7 0.4" fill="none" stroke="currentColor" stroke-width="0.5" stroke-linecap="round"/>
  <path d="M15 18c-0.15 0.3-0.3 0.5-0.25 0.6" fill="none" stroke="currentColor" stroke-width="0.5" stroke-linecap="round"/>
  <!-- Body dimension -->
  <ellipse cx="13" cy="11" rx="3" ry="2.8" opacity="0.07"/>
</svg>
