<svg xmlns="http://www.w3.org/2000/svg" viewBox="0 0 24 24" fill="currentColor">
  <!-- Bird body silhouette facing right -->
  <path d="M3 9.5c0-2.2 1.5-4 3.5-4.5 0.5-0.1 1 0 1.5 0.2C8.8 4.4 9.8 4 10.8 4c1.2 0 2.2 0.6 2.8 1.5 0.3 0.5 0.5 1 0.5 1.6 0 0.8-0.3 1.5-0.8 2 1.5 0.9 2.5 2.5 2.5 4.5 0 2-1 3.6-2.5 4.5l-0.2 1.2c-0.05 0.2-0.15 0.3-0.35 0.3h-0.9c-0.15 0-0.3-0.12-0.32-0.28L11.3 18c-0.5 0.1-1 0.15-1.5 0.15s-1-0.05-1.5-0.15l-0.18 1.22c-0.02 0.16-0.17 0.28-0.32 0.28H6.9c-0.2 0-0.3-0.1-0.35-0.3L6.3 18C4.5 17 3.3 15.3 3.3 13.3c0-1.8 0.8-3.2 2-4.2C4 8.7 3 8.2 3 7z"/>
  <!-- Bird head -->
  <path d="M6.5 5.5c1.1-0.7 2.3-0.9 3.5-0.7 1.4 0.2 2.5 1 3 2 0.3 0.6 0.2 1.3-0.2 1.8-0.5 0.6-1.2 1-2.1 1.2-1.8 0.3-3.6-0.2-4.5-1.3C5.5 7.8 5.5 6.6 6.5 5.5z"/>
  <!-- Eye -->
  <circle cx="11" cy="6.3" r="0.9"/>
  <circle cx="11.3" cy="6" r="0.3" fill="white"/>
  <!-- Beak -->
  <path d="M13.2 6.5c0.5-0.1 1 0.1 1.2 0.4 0.1 0.2 0 0.4-0.2 0.45L13 7.2z"/>
  <!-- Wing line -->
  <line x1="5" y1="12" x2="9.5" y2="10.7" stroke="currentColor" stroke-width="0.5" stroke-linecap="round" fill="none"/>
  <!-- Female symbol ♀ -->
  <circle cx="19.5" cy="6" r="2.5" fill="none" stroke="currentColor" stroke-width="1.3"/>
  <line x1="19.5" y1="8.5" x2="19.5" y2="12.5" stroke="currentColor" stroke-width="1.3" stroke-linecap="round"/>
  <line x1="18" y1="10.5" x2="21" y2="10.5" stroke="currentColor" stroke-width="1.3" stroke-linecap="round"/>
  <!-- Subtle body shape -->
  <ellipse cx="8.5" cy="13.5" rx="3" ry="3" opacity="0.07"/>
</svg>
