<svg xmlns="http://www.w3.org/2000/svg" width="24" height="24" viewBox="0 0 24 24" fill="none" stroke="currentColor" stroke-width="1.8" stroke-linecap="round" stroke-linejoin="round">
  <!-- Finch: small compact body, distinctively thick/short conical beak, strong legs -->
  <!-- Body - compact -->
  <path d="M10.5 7.5c-2 .2-3.5 1.5-3.8 3.5-.2 1 0 2 .5 3 .6 1.2 1.5 2 2.8 2.5l-.5 1.5-.5 1.5h2l.5-1.5.5.2c1.3 0 2.5-.5 3.3-1.3 1-1 1.5-2.5 1.5-4 0-1.8-1-3.2-2.5-4-.5-.8-1.8-1.5-3-1.5z"/>
  <!-- Eye -->
  <circle cx="13.5" cy="10" r="1" fill="currentColor" stroke="none"/>
  <!-- Thick conical beak (finch defining feature) - triangle shape -->
  <path d="M16 9l3.5-1"/>
  <path d="M16 11l3.5.5"/>
  <path d="M19.5 8l0 3.5"/>
  <!-- Head stripe pattern -->
  <path d="M12 7.5c.5-.8 1-1.5 1.5-1.8"/>
  <!-- Wing with distinct edge -->
  <path d="M8.2 11c1.8-.2 3.8 0 5 .8"/>
  <path d="M8.5 12.5c1.5-.2 3 0 4 .5"/>
  <!-- Medium tail -->
  <path d="M7.2 14l-2 2"/>
  <path d="M7.8 14.5l-1 2.5"/>
  <!-- Strong feet -->
  <path d="M10 18l-1.5 1.5"/>
  <path d="M10 18l.5 2"/>
  <path d="M12 17.5l1 2"/>
  <path d="M12 17.5l-.5 2"/>
</svg>