<svg xmlns="http://www.w3.org/2000/svg" viewBox="0 0 24 24" fill="none" stroke="currentColor" stroke-width="1.6" stroke-linecap="round" stroke-linejoin="round">
  <circle cx="13.6" cy="6" r="2.7"/>
  <path d="M10 8.9c-2.5.4-4 2.2-4 4.8 0 2.7 1.9 4.5 4.9 4.5h2.2c2.5 0 4.3-1.2 4.8-3.2.4-1.8-.4-3.8-2.2-4.8"/>
  <circle cx="14.1" cy="5.6" r=".75" fill="currentColor"/>
  <path d="M16 6.3c.9-.1 1.6.1 2 .5.2.2.1.5-.2.6L16 7.7z"/>
  <path d="M16 7.3c.8.1 1.4.4 1.7.8.1.2-.1.4-.3.4L16 8.2z" stroke-width="1.2"/>
  <path d="M8.1 10.8c1.7-.4 3.4 0 4.8.8" stroke-width="1" opacity=".35"/>
  <path d="M8 12.4c1.5-.3 2.9 0 4.2.7" stroke-width=".8" opacity=".25"/>
  <path d="M8.3 15.7 5.9 18.8"/>
  <path d="M9 16.4 6.8 19" stroke-width="1.1" opacity=".55"/>
</svg>
