<svg xmlns="http://www.w3.org/2000/svg" viewBox="0 0 24 24" fill="currentColor">
  <!-- Heart shape -->
  <path d="M12 21.2l-1.2-1.1C5.8 15.5 2.5 12.5 2.5 8.8 2.5 5.9 4.8 3.5 7.5 3.5c1.5 0 3 0.7 4 1.8l0.5 0.6 0.5-0.6c1-1.1 2.5-1.8 4-1.8 2.7 0 5 2.4 5 5.3 0 3.7-3.3 6.7-8.3 11.3L12 21.2z"/>
  <!-- Bird wing accent on upper-right curve -->
  <path d="M16.5 5.5c0.8 0.3 1.5 0.8 2 1.5" fill="none" stroke="currentColor" stroke-width="0.5" stroke-linecap="round"/>
  <path d="M15.8 4.8c1 0 2 0.4 2.8 1" fill="none" stroke="currentColor" stroke-width="0.5" stroke-linecap="round"/>
  <path d="M15 4.5c1.2-0.2 2.3 0.2 3.2 0.8" fill="none" stroke="currentColor" stroke-width="0.5" stroke-linecap="round"/>
  <!-- Small bird silhouette integrated into right side -->
  <path d="M17 7c0.5-0.3 1-0.2 1.2 0.1 0.1 0.15-0.05 0.35-0.2 0.4L17 7.5z" opacity="0.9"/>
  <!-- Tiny eye on bird accent -->
  <circle cx="17.5" cy="6.5" r="0.4"/>
  <circle cx="17.7" cy="6.4" r="0.15" fill="white"/>
  <!-- Heartbeat line suggestion -->
  <path d="M6 12l1.5 0 0.8-1.5 1.2 3 1-2.5 0.8 1H13" fill="none" stroke="white" stroke-width="0.6" stroke-linecap="round" stroke-linejoin="round" opacity="0.4"/>
  <!-- Subtle dimension -->
  <ellipse cx="12" cy="12" rx="4" ry="4.5" opacity="0.06"/>
</svg>
