<svg xmlns="http://www.w3.org/2000/svg" viewBox="0 0 24 24" fill="none" stroke="currentColor" stroke-width="1.6" stroke-linecap="round" stroke-linejoin="round"><path d="M12 21S4 15 4 9.5C4 6.5 6 4.5 8.5 4.5c1.5 0 2.5.5 3.5 1.5 1-1 2-1.5 3.5-1.5C18 4.5 20 6.5 20 9.5c0 5.5-8 11.5-8 11.5z"/><polyline points="4 13 7 13 9 10 11 16 13 11 15 13 17 13 20 13" stroke-width="1.4"/><line x1="12" y1="6.5" x2="12" y2="8.5" stroke-width="1.2" opacity=".4"/><line x1="11" y1="7.5" x2="13" y2="7.5" stroke-width="1.2" opacity=".4"/></svg>
