<svg xmlns="http://www.w3.org/2000/svg" viewBox="0 0 24 24" fill="none" stroke="currentColor" stroke-width="1.6" stroke-linecap="round" stroke-linejoin="round"><path d="M10 8c-2.5 0-4.5 2-4.5 5s1.5 4 4.5 4c2 0 3.5-1 4-2.5"/><circle cx="11" cy="6" r="3"/><circle cx="11.5" cy="5.5" r=".7" fill="currentColor"/><ellipse cx="13.5" cy="5.8" rx="1" ry=".6" fill="currentColor" opacity=".25"/><path d="M14 6l1.5-.3-1.5.8"/><path d="M8 10c2 0 4 1 5 3" opacity=".4"/><path d="M6 15l-2 5M7 15l-1 5"/><circle cx="20" cy="5" r="2.5" stroke-width="1.8"/><path d="M22 2.5l-1.5 1.5M22 2.5h-2M22 2.5v2" stroke-width="1.8"/></svg>
