<svg xmlns="http://www.w3.org/2000/svg" viewBox="0 0 24 24" fill="currentColor">
  <!-- Bird body silhouette facing right -->
  <path d="M4 9c0-2.5 1.8-4.5 4-4.8 0.5-0.1 1 0 1.5 0.2 0.8-0.8 1.8-1.2 2.8-1.2 1.2 0 2.2 0.6 2.8 1.5 0.3 0.5 0.5 1 0.5 1.6 0 0.8-0.3 1.5-0.8 2l0.2 0.2c1.5 0.9 2.5 2.5 2.5 4.5 0 2-1 3.6-2.5 4.5l-0.2 1.2c-0.05 0.2-0.15 0.3-0.35 0.3H13.5c-0.15 0-0.3-0.12-0.32-0.28L13 17.5c-0.5 0.1-1 0.15-1.5 0.15s-1-0.05-1.5-0.15l-0.18 1.22c-0.02 0.16-0.17 0.28-0.32 0.28H8.55c-0.2 0-0.3-0.1-0.35-0.3L8 17.5C6.2 16.5 5 14.8 5 12.8c0-1.8 0.8-3.2 2-4.2C5.5 8.2 4.5 7.8 4 7z"/>
  <!-- Bird head/body -->
  <path d="M8 5c1.2-0.8 2.5-1 3.8-0.8 1.5 0.2 2.7 1 3.2 2.2 0.3 0.7 0.2 1.4-0.2 2-0.5 0.7-1.3 1.1-2.3 1.3-2 0.3-4-0.3-5-1.5C7 7.5 7 6.2 8 5z"/>
  <!-- Eye -->
  <circle cx="12.5" cy="5.8" r="0.9"/>
  <circle cx="12.8" cy="5.5" r="0.3" fill="white"/>
  <!-- Beak -->
  <path d="M14.8 6c0.5-0.1 1 0.1 1.2 0.4 0.1 0.2 0 0.4-0.2 0.45L14.5 6.7z"/>
  <!-- Wing line -->
  <line x1="6.5" y1="11.5" x2="11" y2="10.2" stroke="currentColor" stroke-width="0.5" stroke-linecap="round" fill="none"/>
  <!-- Male symbol ♂ -->
  <circle cx="19" cy="4.5" r="2.2" fill="none" stroke="currentColor" stroke-width="1.3"/>
  <line x1="20.5" y1="3" x2="22.5" y2="1" stroke="currentColor" stroke-width="1.3" stroke-linecap="round"/>
  <line x1="22.5" y1="1" x2="20.8" y2="1" stroke="currentColor" stroke-width="1.3" stroke-linecap="round"/>
  <line x1="22.5" y1="1" x2="22.5" y2="2.7" stroke="currentColor" stroke-width="1.3" stroke-linecap="round"/>
  <!-- Subtle body shape -->
  <ellipse cx="10" cy="13" rx="3" ry="3.2" opacity="0.07"/>
</svg>
