<svg xmlns="http://www.w3.org/2000/svg" viewBox="0 0 24 24" fill="currentColor">
  <!-- Camera body outline -->
  <path d="M20 6h-3.2l-1.2-1.6c-0.3-0.4-0.8-0.6-1.3-0.6h-4.6c-0.5 0-1 0.2-1.3 0.6L7.2 6H4c-1.1 0-2 0.9-2 2v10c0 1.1 0.9 2 2 2h16c1.1 0 2-0.9 2-2V8c0-1.1-0.9-2-2-2z"/>
  <!-- Lens circle -->
  <circle cx="12" cy="13" r="4.5" fill="none" stroke="currentColor" stroke-width="0"/>
  <!-- Inner lens area (cut out for bird) -->
  <circle cx="12" cy="13" r="4.5" opacity="0.12"/>
  <!-- Bird silhouette inside lens -->
  <path d="M11.5 9.8c-0.6 0-1.1 0.4-1.1 0.9 0 0.3 0.1 0.5 0.3 0.7-0.7 0.3-1.2 1-1.2 1.8 0 1.2 0.9 2 2.2 2 0.9 0 1.6-0.4 1.9-1.1 0.1-0.3 0.1-0.6 0.1-0.9-0.1-0.6-0.5-1.1-1-1.4 0.2-0.2 0.3-0.4 0.3-0.7 0-0.5-0.5-0.9-1.1-0.9z" opacity="0.3"/>
  <!-- Bird eye in lens -->
  <circle cx="12.5" cy="10.8" r="0.35" opacity="0.4"/>
  <circle cx="12.6" cy="10.7" r="0.12" fill="white"/>
  <!-- Bird beak in lens -->
  <path d="M13.2 11c0.25-0.02 0.4 0.05 0.45 0.18 0.02 0.06-0.02 0.12-0.08 0.13l-0.5 0z" opacity="0.35"/>
  <!-- Bird wing line in lens -->
  <line x1="10.5" y1="13" x2="12" y2="12.5" stroke="currentColor" stroke-width="0.3" stroke-linecap="round" fill="none" opacity="0.3"/>
  <!-- Camera flash/light -->
  <circle cx="17.5" cy="7.5" r="0.8" opacity="0.15"/>
  <!-- Camera detail -->
  <rect x="10.5" y="5" width="3" height="1" rx="0.5" opacity="0.2"/>
  <!-- Lens ring -->
  <circle cx="12" cy="13" r="4.5" fill="none" stroke="currentColor" stroke-width="0.5" opacity="0.2"/>
  <circle cx="12" cy="13" r="3.8" fill="none" stroke="currentColor" stroke-width="0.3" opacity="0.15"/>
</svg>
