<svg xmlns="http://www.w3.org/2000/svg" viewBox="0 0 24 24" fill="none" stroke="currentColor" stroke-width="1.6" stroke-linecap="round" stroke-linejoin="round"><path d="M10 3v5M14 3v5" stroke-width="1.8"/><rect x="8" y="8" width="8" height="5" rx="2.5" fill="currentColor" opacity=".1"/><rect x="8" y="8" width="8" height="5" rx="2.5"/><line x1="10.5" y1="10" x2="13.5" y2="10" stroke-width="1" opacity=".5"/><line x1="10.5" y1="11.5" x2="12.5" y2="11.5" stroke-width="1" opacity=".5"/><path d="M8 3c-1 0-2 .5-2 1.5M10 3c-1 0-1.5 .5-1.5 1M14 3c1 0 1.5 .5 1.5 1M16 3c1 0 2 .5 2 1.5" stroke-width="1.2"/><g opacity=".3" stroke-width=".8"><line x1="10" y1="15" x2="10" y2="18"/><line x1="11" y1="15" x2="11" y2="17"/><line x1="12" y1="15" x2="12" y2="18"/><line x1="13" y1="15" x2="13" y2="17"/><line x1="14" y1="15" x2="14" y2="18"/></g><path d="M7 20h10" stroke-width="1" opacity=".3"/></svg>
