<svg xmlns="http://www.w3.org/2000/svg" viewBox="0 0 24 24" fill="currentColor">
  <!-- Three overlapping bird head silhouettes - back (largest) -->
  <path d="M6 7c-1 0-1.8 0.6-1.8 1.5 0 0.5 0.2 0.9 0.5 1.2-1 0.5-1.7 1.5-1.7 2.8 0 2 1.5 3.2 3.8 3.2 1.5 0 2.7-0.5 3.2-1.5 0.2-0.4 0.3-0.9 0.2-1.4-0.2-1-0.8-1.8-1.7-2.2 0.3-0.3 0.4-0.7 0.4-1.2C9 7.5 7.8 7 6.8 7z" opacity="0.35"/>
  <!-- Back bird eye -->
  <circle cx="7.8" cy="8.5" r="0.6" opacity="0.4"/>
  <circle cx="8" cy="8.3" r="0.2" fill="white" opacity="0.5"/>
  <!-- Back bird beak -->
  <path d="M9.2 8.8c0.4-0.05 0.7 0.08 0.8 0.25 0.04 0.1-0.02 0.2-0.12 0.22L9 9.2z" opacity="0.4"/>

  <!-- Middle bird head -->
  <path d="M10 5c-1.2 0-2 0.7-2 1.7 0 0.5 0.2 1 0.5 1.3-1.2 0.5-2 1.6-2 3 0 2.2 1.6 3.5 4.2 3.5 1.7 0 3-0.6 3.5-1.7 0.2-0.5 0.3-1 0.2-1.5-0.2-1.1-0.8-2-1.8-2.5 0.3-0.3 0.5-0.8 0.5-1.3C13.1 5.8 11.8 5 10.5 5z" opacity="0.6"/>
  <!-- Middle bird eye -->
  <circle cx="12" cy="6.8" r="0.7" opacity="0.65"/>
  <circle cx="12.2" cy="6.6" r="0.22" fill="white" opacity="0.7"/>
  <!-- Middle bird beak -->
  <path d="M13.5 7c0.45-0.05 0.8 0.1 0.9 0.3 0.05 0.12-0.02 0.22-0.15 0.25l-1 0z" opacity="0.6"/>

  <!-- Front bird head (largest, most prominent) -->
  <path d="M13.5 3.5c-1.5 0-2.7 0.9-2.7 2.2 0 0.7 0.3 1.2 0.8 1.6-1.5 0.7-2.5 2-2.5 3.7 0 2.8 2 4.5 5.2 4.5 2.2 0 3.8-1 4.5-2.5 0.3-0.6 0.3-1.3 0.2-2-0.3-1.3-1-2.5-2.2-3 0.4-0.4 0.6-1 0.6-1.6 0-1.4-1.2-2.3-2.7-2.3z"/>
  <!-- Front bird eye -->
  <circle cx="16" cy="5.5" r="0.9"/>
  <circle cx="16.3" cy="5.2" r="0.3" fill="white"/>
  <!-- Front bird beak -->
  <path d="M17.8 5.8c0.6-0.08 1 0.12 1.2 0.4 0.08 0.15-0.02 0.3-0.18 0.32l-1.3 0.08z"/>
  <!-- Front wing accent -->
  <line x1="10.5" y1="10" x2="15" y2="8.8" stroke="currentColor" stroke-width="0.5" stroke-linecap="round" fill="none"/>
  <line x1="10.8" y1="11.3" x2="15.5" y2="10.2" stroke="currentColor" stroke-width="0.5" stroke-linecap="round" fill="none"/>
  <!-- Front bird tail hint -->
  <path d="M10 12c-0.8 0.6-1.2 1.5-1.5 2.5-0.05 0.15 0.08 0.25 0.18 0.18 0.5-0.5 1-1.2 1.3-2z" opacity="0.5"/>
  <!-- Front bird legs -->
  <line x1="13.5" y1="15" x2="13" y2="17.5" stroke="currentColor" stroke-width="0.6" stroke-linecap="round" fill="none"/>
  <line x1="15.5" y1="15" x2="16" y2="17.5" stroke="currentColor" stroke-width="0.6" stroke-linecap="round" fill="none"/>
  <!-- Body dimension on front bird -->
  <ellipse cx="14" cy="11" rx="3" ry="2.8" opacity="0.07"/>
</svg>
