<svg xmlns="http://www.w3.org/2000/svg" viewBox="0 0 24 24" fill="none" stroke="currentColor" stroke-width="1.6" stroke-linecap="round" stroke-linejoin="round">
  <path d="M4.5 14.5c.8-1.2 2.5-1.8 5-1.8h4.2c2.1 0 3.7.7 4.5 1.9.7 1.1.4 2.6-.8 3.4-.9.6-2.1.9-3.5.9H9.4c-2.7 0-4.6-.9-5.1-2.5-.2-.6-.1-1.2.2-1.9Z"/>
  <path d="M5.8 12.9c-1-.2-1.8-1-1.8-2 0-1.1.9-2 2-2 .9 0 1.7.5 2 1.3"/>
  <path d="M5.6 10.9c.5.3 1.1.3 1.6.1" stroke-width="1"/>
  <path d="M8.7 14.5c1.6-.4 3.3-.4 4.8 0" stroke-width="1" opacity=".35"/>
  <path d="M16.6 15.5h3.8" opacity=".3"/>
  <path d="M17.5 5.3 21 8.8M21 5.3l-3.5 3.5" stroke-width="1.8"/>
  <path d="M10.3 18.9v1.3M11.7 18.9v1.3" stroke-width="1.1"/>
</svg>
