<svg xmlns="http://www.w3.org/2000/svg" viewBox="0 0 533.5 544.3">
  <path
    fill="#4285f4"
    d="M533.5 278.4c0-17.4-1.6-34.1-4.7-50.3H272v95.2h147.1c-6.3 34-25 62.7-53.4 81.8v67h86.3c50.4-46.4 81.5-114.7 81.5-193.7z"
  />
  <path
    fill="#34a853"
    d="M272 544.3c73.7 0 135.6-24.4 180.8-66.2l-86.3-67c-24 16.1-54.7 25.6-94.5 25.6-72.6 0-134.1-49-156.1-114.9H26.8v71.9C71.9 483.6 164.1 544.3 272 544.3z"
  />
  <path
    fill="#fbbc04"
    d="M115.9 321.8c-5.6-16.1-8.8-33.3-8.8-51.1s3.2-35 8.8-51.1v-71.9H26.8C9.7 181.6 0 224.8 0 270.7s9.7 89.1 26.8 122.9l89.1-71.8z"
  />
  <path
    fill="#ea4335"
    d="M272 107.8c40.1 0 76 13.8 104.3 40.7l78.2-78.2C407.5 26.5 345.6 0 272 0 164.1 0 71.9 60.7 26.8 147.7l89.1 71.9c22-65.9 83.5-111.8 156.1-111.8z"
  />
</svg>
