<svg xmlns="http://www.w3.org/2000/svg" viewBox="0 0 24 24" fill="currentColor">
  <path d="M4 4.5C4 3.67 4.67 3 5.5 3H12v18H5.5A1.5 1.5 0 0 1 4 19.5v-15z" stroke="currentColor" stroke-width="0.7" stroke-linejoin="round" fill="none"/>
  <path d="M12 3h6.5c0.83 0 1.5 0.67 1.5 1.5v15c0 0.83-0.67 1.5-1.5 1.5H12V3z" stroke="currentColor" stroke-width="0.7" stroke-linejoin="round" fill="none"/>
  <line x1="12" y1="3" x2="12" y2="21" stroke="currentColor" stroke-width="0.5"/>
  <path d="M11.2 6l-1.2 2.5L11.2 11h1.6l-1.2-2.5L12.8 6h-1.6z" fill="currentColor" opacity="0.4"/>
  <line x1="6.5" y1="8" x2="9.5" y2="8" stroke="currentColor" stroke-width="0.4" stroke-linecap="round" opacity="0.4"/>
  <line x1="6.5" y1="10.5" x2="9.5" y2="10.5" stroke="currentColor" stroke-width="0.4" stroke-linecap="round" opacity="0.4"/>
  <line x1="6.5" y1="13" x2="9.5" y2="13" stroke="currentColor" stroke-width="0.4" stroke-linecap="round" opacity="0.4"/>
  <line x1="14.5" y1="8" x2="17.5" y2="8" stroke="currentColor" stroke-width="0.4" stroke-linecap="round" opacity="0.4"/>
  <line x1="14.5" y1="10.5" x2="17.5" y2="10.5" stroke="currentColor" stroke-width="0.4" stroke-linecap="round" opacity="0.4"/>
  <line x1="14.5" y1="13" x2="17.5" y2="13" stroke="currentColor" stroke-width="0.4" stroke-linecap="round" opacity="0.4"/>
</svg>
