<svg xmlns="http://www.w3.org/2000/svg" viewBox="0 0 24 24" fill="currentColor">
  <path d="M12 2C6.48 2 2 6.48 2 12s4.48 10 10 10 10-4.48 10-10S17.52 2 12 2zm-1 3.3l1.35-1.3c2.69.47 4.92 2.42 5.78 4.97L17 10.1l-1.28-.96-1.28 1.76-1.29-.37-.71-1.74-1.73.03L10.1 6.9l.9-1.6zM7.54 8.11l1.48 2.05-.49 1.94-.85.42-1.82-.56L4.6 10.2c.63-1.65 1.73-3.02 3.13-3.96l-.19 1.87zM8.13 17l-.53-1.79 1.37-1.17h2.1l1.37 1.17L11.88 17H8.13zm5.14 2.51c-.48.14-.97.24-1.48.3l-.67-1.59 1.04-.89h1.68l1.04.89-.67 1.59c-.51-.06-1-.16-1.48-.3l.54-.3z"/>
</svg>
