<svg xmlns="http://www.w3.org/2000/svg" viewBox="0 0 24 24" fill="currentColor">
  <path d="M7.5 14c-0.5-1.2-0.8-2-0.8-3.5 0-2.5 2-4.5 4-4.5 0.8 0 1.5 0.2 2.1 0.6" stroke="currentColor" stroke-width="0.7" stroke-linecap="round" fill="none"/>
  <path d="M10.7 6c0-1.3 0.9-2.5 2.1-2.5s2.1 1 2.1 2.2c0 0.8-0.4 1.5-0.9 2" stroke="currentColor" stroke-width="0.7" stroke-linecap="round" fill="none"/>
  <path d="M14 5.7c1.3 0.1 2.5 1.1 2.5 2.8s-0.8 2.2-1.3 2.7" stroke="currentColor" stroke-width="0.7" stroke-linecap="round" fill="none"/>
  <path d="M15.2 11.2c0.7 0.5 1.3 1.4 1.3 2.8 0 1.8-1.3 3.2-2.7 3.2" stroke="currentColor" stroke-width="0.7" stroke-linecap="round" fill="none"/>
  <path d="M13.8 17.2c-0.5 0.7-1.3 1.8-3 1.8s-2.5-0.9-3-1.7" stroke="currentColor" stroke-width="0.7" stroke-linecap="round" fill="none"/>
  <path d="M7.5 14c-0.2 0.5-0.3 1.3 0.3 2.3" stroke="currentColor" stroke-width="0.7" stroke-linecap="round" fill="none"/>
  <line x1="4" y1="9" x2="5.2" y2="9.3" stroke="currentColor" stroke-width="0.6" stroke-linecap="round" opacity="0.5"/>
  <line x1="3.5" y1="11.5" x2="4.8" y2="11.5" stroke="currentColor" stroke-width="0.6" stroke-linecap="round" opacity="0.5"/>
  <line x1="4" y1="14" x2="5.2" y2="13.7" stroke="currentColor" stroke-width="0.6" stroke-linecap="round" opacity="0.5"/>
</svg>
