<svg xmlns="http://www.w3.org/2000/svg" viewBox="0 0 24 24" fill="currentColor">
  <line x1="5.5" y1="8.5" x2="18.5" y2="8.5" stroke="currentColor" stroke-width="0.8" stroke-linecap="round"/>
  <polygon points="12,5 11,8.5 13,8.5" fill="currentColor" opacity="0.6"/>
  <line x1="12" y1="8.5" x2="12" y2="5" stroke="currentColor" stroke-width="0.7" stroke-linecap="round"/>
  <line x1="5.5" y1="8.5" x2="3.5" y2="14.5" stroke="currentColor" stroke-width="0.6" stroke-linecap="round"/>
  <line x1="5.5" y1="8.5" x2="7.5" y2="14.5" stroke="currentColor" stroke-width="0.6" stroke-linecap="round"/>
  <path d="M2 14.5a3.5 3.5 0 0 0 7 0" stroke="currentColor" stroke-width="0.7" stroke-linecap="round" fill="none"/>
  <line x1="2" y1="14.5" x2="9" y2="14.5" stroke="currentColor" stroke-width="0.5" stroke-linecap="round"/>
  <line x1="18.5" y1="8.5" x2="16.5" y2="14.5" stroke="currentColor" stroke-width="0.6" stroke-linecap="round"/>
  <line x1="18.5" y1="8.5" x2="20.5" y2="14.5" stroke="currentColor" stroke-width="0.6" stroke-linecap="round"/>
  <path d="M15 14.5a3.5 3.5 0 0 0 7 0" stroke="currentColor" stroke-width="0.7" stroke-linecap="round" fill="none"/>
  <line x1="15" y1="14.5" x2="22" y2="14.5" stroke="currentColor" stroke-width="0.5" stroke-linecap="round"/>
  <rect x="10.5" y="8.5" width="3" height="12" rx="0.6" stroke="currentColor" stroke-width="0.5" fill="none" opacity="0.4"/>
</svg>
