<svg xmlns="http://www.w3.org/2000/svg" viewBox="0 0 24 24" fill="none" stroke="currentColor" stroke-width="1.6" stroke-linecap="round" stroke-linejoin="round"><circle cx="14" cy="5.5" r="3.5"/><path d="M10.5 8.5C8.5 9 7 10.5 7 13c0 2.5 1.5 4 4 4h2.5c1.5 0 3-.8 3-2.5 0-1-.5-2-1.5-3"/><circle cx="15.5" cy="5" r=".8" fill="currentColor"/><circle cx="15.5" cy="5" r="1.3" stroke-width=".6" opacity=".3"/><ellipse cx="17" cy="6" rx=".8" ry=".5" fill="currentColor" opacity=".2"/><path d="M17.5 6.5c.8 0 1.3.3 1.3.8s-.5.7-1 .5l-1-.8" stroke-width="1.4"/><path d="M11.5 3.5c1-.4 2.5-.5 3.5-.2" stroke-width=".7" opacity=".3"/><path d="M11 4.3c1-.3 2.5-.4 3.8 0" stroke-width=".7" opacity=".25"/><path d="M10.8 5.1c.8-.2 2-.3 3 0" stroke-width=".7" opacity=".2"/><path d="M8.5 10c1.5-.5 3.5-.3 5 .5" stroke-width="1" opacity=".35"/><path d="M8 11.5c1.5-.3 3-.2 4.5.3" stroke-width=".8" opacity=".25"/><line x1="8" y1="16" x2="4" y2="22" stroke-width="1.4"/><line x1="9" y1="16.5" x2="5.5" y2="22" stroke-width="1.2"/><line x1="10" y1="16.5" x2="7" y2="21.5" stroke-width="1" opacity=".6"/><line x1="2" y1="17.5" x2="22" y2="17.5" stroke-width="2.2"/><path d="M11 17v.5M12.5 15.5v2M14 15v2.5" stroke-width="1.2"/></svg>
