<svg xmlns="http://www.w3.org/2000/svg" viewBox="0 0 24 24" fill="currentColor">
  <!-- Simplified bird silhouette - single flowing shape -->
  <path d="M20.2 7.4c-.3-1.6-1.6-2.8-3.2-2.8-1 0-1.9.5-2.5 1.2C13.5 4.7 12 4 10.5 4 8 4 6 6 6 8.5c0 .5.1 1 .2 1.4C5.5 10.5 5 11.4 5 12.5c0 1.5 1 2.7 2.3 3.1L9 13.5l3.5.8 2.8-1.8 2.2 1.3c1.8-.2 3-1.5 3-3.2 0-.9-.4-1.8-1.1-2.4l.8-.8ZM9 9.2a1 1 0 1 1 0-2 1 1 0 0 1 0 2Z"/>
  <!-- Tail feathers - geometric fan -->
  <path d="M5.5 13.5c-1 1.2-2.2 3-2.5 4.5-.2 1 .3 1.5 1 1.2 1.2-.5 2.5-2 3.5-3.5L5.5 13.5Z" opacity="0.75"/>
  <!-- Feet - simple geometric lines -->
  <path d="M10 16.5v3l-1.2 1.2M10 19.5l1.2 1.2M14 15.5v3l-1.2 1.2M14 18.5l1.2 1.2" fill="none" stroke="currentColor" stroke-width="0.7" stroke-linecap="round"/>
</svg>
