<svg xmlns="http://www.w3.org/2000/svg" width="24" height="24" viewBox="0 0 24 24" fill="none"
  stroke="currentColor" stroke-width="1.8" stroke-linecap="round" stroke-linejoin="round">
  <path
    d="M9 4.5C6.5 4.5 5 6.8 5 9c0 2 .8 3.5 2 4.5L5.5 16l-1 2.5L6 20h3.5l.5-1.5-.5-2 1.5-2c1 .3 2.2.3 3.2-.2 2-1 3.8-3.5 3.8-6.3C18 6 16 4 13.5 4c-1.5 0-2.8.7-3.5 1.5-.3-.5-.6-1-1-1z" />
  <circle cx="13.5" cy="7.5" r=".9" fill="currentColor" stroke="none" />
  <path d="M18 6.5l1.5-1" />
  <path d="M8 10c1.5-.2 4 0 5.5.5" opacity=".5" />
</svg>