<svg xmlns="http://www.w3.org/2000/svg" viewBox="0 0 24 24" fill="currentColor">
  <!-- Budgerigar silhouette - perched, upright, referans stilinde -->
  <!-- Tek ana gövde: yuvarlak kafa + tombul gövde + uzun kuyruk -->
  <path d="M12.8 1.8c-2 0-3.5 1.2-3.5 3.2 0 .8.3 1.5.7 2.1.5.6 1.1 1 1.8 1.2.3.4.5.9.6 1.5.2 1.2.1 2.6 0 3.8-.1.8 0 1.5.1 2.2l.2 1.5c-.4.2-.8.3-1.2.4l.1.8c.3 0 .7-.1 1-.2l.2 1.5c.1.7 0 1.4-.2 2-.15.5-.2 1-.15 1.4.03.2-.08.35-.25.3-.12-.03-.18-.15-.15-.3.03-.35 0-.8-.15-1.2-.18-.6-.25-1.3-.15-2l-.2-1.6c-.15 0-.3.02-.45.02l.05.8c.05.6 0 1.2-.15 1.7-.1.4-.15.8-.1 1.1.02.18-.08.3-.22.28-.1-.02-.16-.12-.14-.25.03-.3 0-.65-.12-1-.15-.5-.2-1.1-.15-1.7l-.05-.95c-.2 0-.35-.02-.5-.05.05-.3.08-.55.1-.8-.1-.6-.15-1.3-.05-2 .1-1.2.2-2.6 0-3.7-.1-.7-.4-1.3-.8-1.7.2-.7.2-1.4 0-2-.3-.7-.8-1.3-1.5-1.6C7.5 3.6 8.5 1.8 10.8 1.8h2z"/>
  <!-- Dal/tünek -->
  <path d="M6 15.8c2-1 4.5-1.3 7-.8 2 .4 3.8 1.2 5.5 2" fill="none" stroke="currentColor" stroke-width="1.3" stroke-linecap="round"/>
  <!-- Yanak benekleri (muhabbet kuşu karakteristik) -->
  <circle cx="10.2" cy="5.8" r="0.5" fill="white"/>
  <circle cx="9.6" cy="6.6" r="0.4" fill="white"/>
  <circle cx="10.8" cy="6.7" r="0.4" fill="white"/>
  <!-- Göz (beyaz alan + siyah göz bebeği) -->
  <ellipse cx="11.5" cy="4.2" rx="0.8" ry="0.7" fill="white"/>
  <circle cx="11.6" cy="4.2" r="0.35"/>
  <!-- Gaga (küçük kıvrık, beyaz cutout) -->
  <path d="M9.5 4.5c-.4 0-.7.2-.7.5 0 .25.2.4.5.35l.8-.2c.1-.05.15-.15.1-.25L9.5 4.5z" fill="white"/>
</svg>