<svg xmlns="http://www.w3.org/2000/svg" viewBox="0 0 24 24" fill="none" stroke="currentColor" stroke-width="1.6" stroke-linecap="round" stroke-linejoin="round"><path d="M4 14c0-1.5 1-3 3-3h1c1.5 0 2 1 2 2M20 14c0-1.5-1-3-3-3h-1c-1.5 0-2 1-2 2"/><path d="M4 14c-1 2-1 4 0 6h16c1-2 1-4 0-6"/><circle cx="12" cy="13" r="3"/><circle cx="11" cy="12.5" r=".5" fill="currentColor"/><path d="M13.5 12.5l1-.3"/><line x1="18" y1="4" x2="18" y2="10" stroke-width="1.4"/><rect x="17" y="3" width="2" height="2" rx=".5"/><path d="M17.5 10l.5 1 .5-1"/></svg>
