<svg xmlns="http://www.w3.org/2000/svg" viewBox="0 0 24 24" fill="currentColor">
  <path d="M12 4a2.5 2.5 0 0 0-2.5 2.5A2.5 2.5 0 0 0 12 9a2.5 2.5 0 0 0 2.5-2.5A2.5 2.5 0 0 0 12 4zm-.75 3a.5.5 0 1 1 0 1 .5.5 0 0 1 0-1zm1.5 0a.5.5 0 1 1 0 1 .5.5 0 0 1 0-1zM12 9.5l1 .75-.5.25H12h-.5l-.5-.25zM4.5 13C3.12 13 2 14.12 2 15.5c0 .5.15.96.4 1.35L2 17l1.5 2c.5.67 1.5 1.5 3 2.5L8 22l2.5-1 1.5-.5 1.5.5 2.5 1 1.5-.5c1.5-1 2.5-1.83 3-2.5L22 17l-.4-.15c.25-.39.4-.85.4-1.35 0-1.38-1.12-2.5-2.5-2.5H16c-.83 0-1.58.34-2.12.88L12 15l-1.88-1.12A2.99 2.99 0 0 0 8 13z"/>
</svg>
