<svg xmlns="http://www.w3.org/2000/svg" viewBox="0 0 24 24" fill="currentColor">
  <!-- Care: cupped hand/wing cradling a small chick -->
  <!-- Cupped hand/wing shape (open from top) -->
  <path d="M3 11c-0.3 1.5 0 3.5 0.8 5 1 1.8 2.5 3.2 4.5 4 2 0.8 4.2 1 6.2 0.6 2-0.5 3.8-1.6 5-3.2 1-1.4 1.5-3 1.5-4.5 0-1-0.3-1.8-0.8-2.2-0.5-0.4-1.2-0.4-1.8-0.1-0.5 0.3-1 0.8-1.4 1.4l-0.3 0.5c-0.3-0.8-0.8-1.5-1.5-1.8-0.6-0.3-1.3-0.2-1.8 0.2"/>
  <!-- Hand/wing palm curve -->
  <path d="M3 11c0.3-0.8 0.8-1.5 1.5-2 0.8-0.5 1.6-0.6 2.4-0.3 0.8 0.3 1.4 1 1.8 1.8 0.3 0.6 0.5 1.3 0.5 2" opacity="0.15"/>
  <!-- Thumb/wing tip -->
  <path d="M3.5 10c-0.4-0.8-0.3-1.6 0.2-2.2 0.4-0.5 1-0.7 1.5-0.5 0.4 0.2 0.7 0.7 0.8 1.3"/>
  <!-- Finger/feather details -->
  <path d="M18.5 10.6c0.5-1 1.2-1.5 1.8-1.2 0.4 0.3 0.5 1 0.2 1.7" opacity="0.3"/>
  <!-- Small chick nestled inside the hand -->
  <!-- Chick body -->
  <ellipse cx="11.5" cy="14.8" rx="2.5" ry="2.3"/>
  <!-- Chick body depth -->
  <ellipse cx="11.5" cy="15.4" rx="1.8" ry="1.2" opacity="0.1"/>
  <!-- Chick head -->
  <circle cx="12" cy="11.8" r="2"/>
  <!-- Neck -->
  <ellipse cx="11.7" cy="13" rx="1.5" ry="1"/>
  <!-- Chick left eye -->
  <circle cx="11.2" cy="11.3" r="0.5"/>
  <circle cx="11.35" cy="11.15" r="0.15" fill="white"/>
  <!-- Chick right eye -->
  <circle cx="13" cy="11.3" r="0.5"/>
  <circle cx="13.15" cy="11.15" r="0.15" fill="white"/>
  <!-- Chick tiny beak -->
  <path d="M13.5 12l0.7 0.2-0.5 0.35z"/>
  <!-- Chick fluffy head tuft -->
  <path d="M11.2 10c0.2-0.4 0.5-0.5 0.7-0.3 0 0.2-0.1 0.5-0.3 0.6"/>
  <path d="M12.2 9.8c0.3-0.3 0.6-0.4 0.8-0.2 0 0.2-0.2 0.5-0.4 0.6"/>
  <!-- Chick tiny feet -->
  <line x1="10.5" y1="16.8" x2="10" y2="18" stroke="currentColor" stroke-width="0.5" stroke-linecap="round"/>
  <line x1="12.3" y1="16.8" x2="12.7" y2="18" stroke="currentColor" stroke-width="0.5" stroke-linecap="round"/>
</svg>
