<svg xmlns="http://www.w3.org/2000/svg" viewBox="0 0 24 24" fill="none" stroke="currentColor" stroke-width="1.6" stroke-linecap="round" stroke-linejoin="round"><circle cx="12" cy="11" r="5.5"/><path d="M7.5 8c-.5-.8-.3-1.5.5-1.5M16.5 8c.5-.8.3-1.5-.5-1.5" stroke-width=".8" opacity=".3"/><circle cx="10.5" cy="10" r="1.2" fill="currentColor" opacity=".12"/><circle cx="10.5" cy="10" r="1.2"/><circle cx="10.8" cy="9.7" r=".4" fill="currentColor"/><path d="M14 10.5l2-1-2 1.5" stroke-width="1.2"/><path d="M7 12c-.5.3-.5 1 0 1.5M17 12c.5.3.5 1 0 1.5" stroke-width="1" opacity=".4"/><path d="M10 16.5v2.5M9 19h2M14 16.5v2.5M13 19h2" stroke-width="1.2"/><path d="M9.5 14c1 .5 2.5.5 3.5 0" stroke-width=".8" opacity=".2"/></svg>
