<svg xmlns="http://www.w3.org/2000/svg" viewBox="0 0 24 24" fill="currentColor">
  <!-- Organic egg shape -->
  <path d="M12 2.5C9.2 2.5 6.5 6.2 5.8 10.2C5.1 14.2 6.4 21.5 12 21.5C17.6 21.5 18.9 14.2 18.2 10.2C17.5 6.2 14.8 2.5 12 2.5Z"/>
  <!-- Subtle highlight ellipse -->
  <ellipse cx="9.8" cy="8.5" rx="2.2" ry="3.5" opacity="0.1" fill="white" transform="rotate(-15 9.8 8.5)"/>
  <!-- Organic crack line 1 - main diagonal crack -->
  <path d="M8.5 9C9.2 9.8 10 10.2 10.5 11C11 11.8 11.8 12.5 12.5 13.2C13 13.8 14 14.5 14.8 15" stroke="white" stroke-width="0.5" stroke-linecap="round" fill="none" opacity="0.7"/>
  <!-- Organic crack line 2 - branching crack -->
  <path d="M10.5 11C10.8 11.5 10.2 12.2 9.5 13" stroke="white" stroke-width="0.5" stroke-linecap="round" fill="none" opacity="0.7"/>
  <!-- Organic crack line 3 - small branch -->
  <path d="M12.5 13.2C13.2 13 14 12.5 14.5 11.8" stroke="white" stroke-width="0.5" stroke-linecap="round" fill="none" opacity="0.7"/>
</svg>
