<svg xmlns="http://www.w3.org/2000/svg" viewBox="0 0 24 24" fill="currentColor">
  <path d="M12 2C8.5 2 5 7.5 5 13c0 4.42 3.13 8 7 8s7-3.58 7-8c0-5.5-3.5-11-7-11z" opacity="0.3"/>
  <path d="M12 2C8.5 2 5 7.5 5 13c0 4.42 3.13 8 7 8s7-3.58 7-8c0-5.5-3.5-11-7-11zm0 2c2.6 0 5 4.5 5 9 0 3.31-2.24 6-5 6s-5-2.69-5-6c0-4.5 2.4-9 5-9z"/>
  <path d="M12 10.5c-.83 0-1.5.45-1.88 1.05-.25-.12-.52-.18-.82-.18-1.1 0-2 .9-2 2s.9 2 2 2c.3 0 .57-.07.82-.18.38.6 1.05 1.05 1.88 1.05s1.5-.45 1.88-1.05c.25.11.52.18.82.18 1.1 0 2-.9 2-2s-.9-2-2-2c-.3 0-.57.06-.82.18-.38-.6-1.05-1.05-1.88-1.05z"/>
</svg>
