<svg xmlns="http://www.w3.org/2000/svg" viewBox="0 0 24 24" fill="none" stroke="currentColor" stroke-width="1.6" stroke-linecap="round" stroke-linejoin="round"><path d="M5 14c0 4.5 3.2 8 7 8s7-3.5 7-8"/><path d="M5 14l2.5-1.5 1.5 2 1.5-2 1.5 1.5 1.5-1.5 1.5 2L17 13l2 1"/><circle cx="12" cy="9" r="3"/><circle cx="11.2" cy="8.5" r=".6" fill="currentColor"/><path d="M13.5 9l1.5-.5"/><path d="M9.5 10c-.5.5-.5 1.5 0 2" stroke-width="1" opacity=".4"/><path d="M16 5c.5-1 1.5-1.5 2-1M7 4c-.5-.5-1-1-1.5-.5" stroke-width="1" opacity=".3"/></svg>
