<svg xmlns="http://www.w3.org/2000/svg" viewBox="0 0 24 24" fill="currentColor">
  <path d="M12 5C9.2 5 7 9.5 7 14c0 3.31 2.24 6 5 6s5-2.69 5-6c0-4.5-2.2-9-5-9z"/>
  <path d="M5.5 7.5c-.28 0-.5-.22-.5-.5 0-1.1.5-2.13.88-2.75.2-.33.62-.25.62-.25s.42-.08.62.25c.38.62.88 1.65.88 2.75 0 .28-.22.5-.5.5s-.5-.22-.5-.5c0-.55-.2-1.15-.5-1.65-.3.5-.5 1.1-.5 1.65 0 .28-.22.5-.5.5zM3 11c-.28 0-.5-.22-.5-.5 0-1.1.5-2.13.88-2.75.2-.33.62-.25.62-.25s.42-.08.62.25c.38.62.88 1.65.88 2.75 0 .28-.22.5-.5.5s-.5-.22-.5-.5c0-.55-.2-1.15-.5-1.65-.3.5-.5 1.1-.5 1.65 0 .28-.22.5-.5.5zM20.5 8.5c-.28 0-.5-.22-.5-.5 0-1.1.5-2.13.88-2.75.2-.33.62-.25.62-.25s.42-.08.62.25c.38.62.88 1.65.88 2.75 0 .28-.22.5-.5.5s-.5-.22-.5-.5c0-.55-.2-1.15-.5-1.65-.3.5-.5 1.1-.5 1.65 0 .28-.22.5-.5.5z"/>
</svg>
