<svg xmlns="http://www.w3.org/2000/svg" viewBox="0 0 24 24" fill="currentColor">
  <path d="M5 2a2 2 0 0 0-2 2v16a2 2 0 0 0 2 2h14a2 2 0 0 0 2-2V4a2 2 0 0 0-2-2H5Zm1 3a1 1 0 0 1 1-1h10a1 1 0 0 1 1 1v3a1 1 0 0 1-1 1H7a1 1 0 0 1-1-1V5Zm1.5 7a1.25 1.25 0 1 1 0 2.5 1.25 1.25 0 0 1 0-2.5Zm4.5 0a1.25 1.25 0 1 1 0 2.5 1.25 1.25 0 0 1 0-2.5Zm4.5 0a1.25 1.25 0 1 1 0 2.5 1.25 1.25 0 0 1 0-2.5ZM7.5 16a1.25 1.25 0 1 1 0 2.5 1.25 1.25 0 0 1 0-2.5ZM12 16a1.25 1.25 0 1 1 0 2.5 1.25 1.25 0 0 1 0-2.5Zm4.5 0a1.25 1.25 0 1 1 0 2.5 1.25 1.25 0 0 1 0-2.5Z"/>
</svg>
