<svg xmlns="http://www.w3.org/2000/svg" viewBox="0 0 24 24" fill="currentColor">
  <!-- Palette body (kidney/bean shape) -->
  <path d="M12 3 C7 3, 2.5 6, 2.5 10 C2.5 14, 5 19, 9 20.5 C11 21.3, 13 21, 14.5 20 C16 19, 17 17.5, 17.5 15.5 C18 13.5, 19.5 13, 20 11.5 C20.5 10, 21 8, 19.5 5.5 C18 3.5, 15 3, 12 3Z" stroke="currentColor" stroke-width="1" fill="none"/>
  <!-- Thumb hole -->
  <ellipse cx="10" cy="14.5" rx="2.2" ry="2.5" stroke="currentColor" stroke-width="0.8" fill="none"/>
  <!-- Color swatch dots with varying opacities -->
  <circle cx="7" cy="8" r="1.6" opacity="1.0"/>
  <circle cx="11" cy="6.5" r="1.5" opacity="0.7"/>
  <circle cx="15" cy="7" r="1.4" opacity="0.5"/>
  <circle cx="17" cy="10.5" r="1.3" opacity="0.3"/>
  <!-- Subtle highlight on palette edge -->
  <path d="M6 5.5 C8 4, 11 3.8, 14 4.2" stroke="white" stroke-width="0.5" stroke-linecap="round" fill="none" opacity="0.3"/>
  <!-- Fine detail lines on palette surface -->
  <path d="M14 13 C15 14, 15.5 16, 14.5 18" stroke="currentColor" stroke-width="0.5" stroke-linecap="round" fill="none" opacity="0.2"/>
</svg>
