<svg xmlns="http://www.w3.org/2000/svg" viewBox="0 0 24 24" fill="currentColor">
  <path d="M6.5 2a.75.75 0 0 1 .75.75v1.5a5.25 5.25 0 0 0 9.5 0v-1.5a.75.75 0 0 1 1.5 0v1.5a6.74 6.74 0 0 1-2.69 5.39l-.06.05a6.74 6.74 0 0 1 2.75 5.56v1.5a.75.75 0 0 1-1.5 0v-1.5a5.25 5.25 0 0 0-9.5 0v1.5a.75.75 0 0 1-1.5 0v-1.5a6.74 6.74 0 0 1 2.75-5.56l-.06-.05A6.74 6.74 0 0 1 5.75 4.25v-1.5A.75.75 0 0 1 6.5 2ZM9 8.75h6a4.73 4.73 0 0 0 .74-1.5H8.26c.17.52.42 1.03.74 1.5Zm6 6.5H9a4.73 4.73 0 0 0-.74 1.5h7.48a4.73 4.73 0 0 0-.74-1.5Z"/>
  <path d="M6.5 19.25a.75.75 0 0 1 .75.75v1.25a.75.75 0 0 1-1.5 0V20a.75.75 0 0 1 .75-.75Zm11 0a.75.75 0 0 1 .75.75v1.25a.75.75 0 0 1-1.5 0V20a.75.75 0 0 1 .75-.75Z"/>
</svg>
