<svg xmlns="http://www.w3.org/2000/svg" viewBox="0 0 24 24" fill="currentColor">
  <!-- Left backbone strand -->
  <path d="M7.5 1.5 C7.5 1.5, 15 4.5, 15 6.5 C15 8.5, 7.5 10, 7.5 12 C7.5 14, 15 15.5, 15 17.5 C15 19.5, 7.5 22, 7.5 22.5" stroke="currentColor" stroke-width="1.3" stroke-linecap="round" fill="none"/>
  <!-- Right backbone strand -->
  <path d="M16.5 1.5 C16.5 1.5, 9 4.5, 9 6.5 C9 8.5, 16.5 10, 16.5 12 C16.5 14, 9 15.5, 9 17.5 C9 19.5, 16.5 22, 16.5 22.5" stroke="currentColor" stroke-width="1.3" stroke-linecap="round" fill="none"/>
  <!-- Base pair rungs -->
  <line x1="9" y1="3.2" x2="15" y2="3.2" stroke="currentColor" stroke-width="0.5" stroke-linecap="round" opacity="0.4"/>
  <line x1="8.2" y1="5" x2="15.8" y2="5" stroke="currentColor" stroke-width="0.5" stroke-linecap="round" opacity="0.4"/>
  <line x1="10.5" y1="6.5" x2="13.5" y2="6.5" stroke="currentColor" stroke-width="0.5" stroke-linecap="round" opacity="0.35"/>
  <line x1="8.2" y1="8.2" x2="15.8" y2="8.2" stroke="currentColor" stroke-width="0.5" stroke-linecap="round" opacity="0.4"/>
  <line x1="9.5" y1="10" x2="14.5" y2="10" stroke="currentColor" stroke-width="0.5" stroke-linecap="round" opacity="0.35"/>
  <line x1="11" y1="12" x2="13" y2="12" stroke="currentColor" stroke-width="0.5" stroke-linecap="round" opacity="0.4"/>
  <line x1="9.5" y1="14" x2="14.5" y2="14" stroke="currentColor" stroke-width="0.5" stroke-linecap="round" opacity="0.35"/>
  <line x1="8.2" y1="15.8" x2="15.8" y2="15.8" stroke="currentColor" stroke-width="0.5" stroke-linecap="round" opacity="0.4"/>
  <line x1="10.5" y1="17.5" x2="13.5" y2="17.5" stroke="currentColor" stroke-width="0.5" stroke-linecap="round" opacity="0.35"/>
  <line x1="8.2" y1="19" x2="15.8" y2="19" stroke="currentColor" stroke-width="0.5" stroke-linecap="round" opacity="0.4"/>
  <line x1="9" y1="20.8" x2="15" y2="20.8" stroke="currentColor" stroke-width="0.5" stroke-linecap="round" opacity="0.4"/>
  <!-- Terminal caps -->
  <circle cx="7.5" cy="1.5" r="0.9"/>
  <circle cx="16.5" cy="1.5" r="0.9"/>
  <circle cx="7.5" cy="22.5" r="0.9"/>
  <circle cx="16.5" cy="22.5" r="0.9"/>
</svg>
