<svg xmlns="http://www.w3.org/2000/svg" viewBox="0 0 24 24" fill="none" stroke="currentColor" stroke-width="1.6" stroke-linecap="round" stroke-linejoin="round"><circle cx="12" cy="4" r="2.5"/><circle cx="12" cy="4" r="2.5" fill="currentColor" opacity=".05"/><line x1="12" y1="6.5" x2="12" y2="9"/><line x1="6" y1="9" x2="18" y2="9"/><line x1="6" y1="9" x2="6" y2="12"/><line x1="18" y1="9" x2="18" y2="12"/><circle cx="6" cy="14.5" r="2.5"/><circle cx="6" cy="14.5" r="2.5" fill="currentColor" opacity=".05"/><circle cx="18" cy="14.5" r="2.5"/><circle cx="18" cy="14.5" r="2.5" fill="currentColor" opacity=".05"/><line x1="6" y1="17" x2="6" y2="18.5"/><line x1="18" y1="17" x2="18" y2="18.5"/><circle cx="4" cy="20" r="1.5" stroke-width="1.2"/><circle cx="8" cy="20" r="1.5" stroke-width="1.2"/><circle cx="16" cy="20" r="1.5" stroke-width="1.2"/><circle cx="20" cy="20" r="1.5" stroke-width="1.2"/><line x1="4" y1="18.5" x2="8" y2="18.5" stroke-width="1"/><line x1="16" y1="18.5" x2="20" y2="18.5" stroke-width="1"/></svg>
