<svg xmlns="http://www.w3.org/2000/svg" viewBox="0 0 24 24" fill="currentColor">
  <path d="M12 2a3 3 0 0 1 3 3 3 3 0 0 1-2.25 2.9v1.35h4.5a1.75 1.75 0 0 1 1.75 1.75v1.75A3 3 0 0 1 22 15.75a3 3 0 0 1-6 0A3 3 0 0 1 18.5 13V11a.25.25 0 0 0-.25-.25h-4.5V13A3 3 0 0 1 15 15.75a3 3 0 0 1-6 0A3 3 0 0 1 10.75 13v-2.25h-4.5a.25.25 0 0 0-.25.25v2A3 3 0 0 1 8 15.75a3 3 0 0 1-6 0A3 3 0 0 1 5 12.75V11a1.75 1.75 0 0 1 1.75-1.75h4.5V7.9A3 3 0 0 1 9 5a3 3 0 0 1 3-3Zm0 1.5A1.5 1.5 0 1 0 12 6.5 1.5 1.5 0 0 0 12 3.5ZM5 14.25a1.5 1.5 0 1 0 0 3 1.5 1.5 0 0 0 0-3Zm7 0a1.5 1.5 0 1 0 0 3 1.5 1.5 0 0 0 0-3Zm7 0a1.5 1.5 0 1 0 0 3 1.5 1.5 0 0 0 0-3Z"/>
</svg>
