<svg xmlns="http://www.w3.org/2000/svg" viewBox="0 0 24 24" fill="currentColor">
  <path d="M12 1a.75.75 0 0 1 .67.41l2.08 4.22 4.66.68a.75.75 0 0 1 .42 1.28l-3.37 3.29.8 4.63a.75.75 0 0 1-1.09.79L12 14.15l-4.17 2.19a.75.75 0 0 1-1.09-.79l.8-4.63L4.17 7.6a.75.75 0 0 1 .42-1.28l4.66-.68 2.08-4.22A.75.75 0 0 1 12 1Z"/>
  <path d="M5.5 17.5a.75.75 0 0 1 .75.75v3a.75.75 0 0 1-1.5 0v-3a.75.75 0 0 1 .75-.75Zm13 0a.75.75 0 0 1 .75.75v3a.75.75 0 0 1-1.5 0v-3a.75.75 0 0 1 .75-.75Zm-6.5 2a.75.75 0 0 1 .75.75v1a.75.75 0 0 1-1.5 0v-1a.75.75 0 0 1 .75-.75Z"/>
</svg>
