<svg xmlns="http://www.w3.org/2000/svg" viewBox="0 0 24 24" fill="currentColor">
  <!-- Gear/cog with 6 rounded teeth and inner circle cutout -->
  <path fill-rule="evenodd" d="M10.4 3.26a.5.5 0 0 1 .49-.4h2.22a.5.5 0 0 1 .49.4l.28 1.86a.5.5 0 0 0 .34.39c.56.16 1.08.38 1.56.65a.5.5 0 0 0 .5.02l1.64-.88a.5.5 0 0 1 .6.1l1.58 1.58a.5.5 0 0 1 .1.6l-.88 1.64a.5.5 0 0 0 .02.5c.27.48.49 1 .65 1.56a.5.5 0 0 0 .39.34l1.86.28a.5.5 0 0 1 .4.49v2.22a.5.5 0 0 1-.4.49l-1.86.28a.5.5 0 0 0-.39.34c-.16.56-.38 1.08-.65 1.56a.5.5 0 0 0-.02.5l.88 1.64a.5.5 0 0 1-.1.6l-1.58 1.58a.5.5 0 0 1-.6.1l-1.64-.88a.5.5 0 0 0-.5.02c-.48.27-1 .49-1.56.65a.5.5 0 0 0-.34.39l-.28 1.86a.5.5 0 0 1-.49.4h-2.22a.5.5 0 0 1-.49-.4l-.28-1.86a.5.5 0 0 0-.34-.39 6.4 6.4 0 0 1-1.56-.65.5.5 0 0 0-.5-.02l-1.64.88a.5.5 0 0 1-.6-.1L3.9 18.52a.5.5 0 0 1-.1-.6l.88-1.64a.5.5 0 0 0-.02-.5 6.4 6.4 0 0 1-.65-1.56.5.5 0 0 0-.39-.34l-1.86-.28a.5.5 0 0 1-.4-.49v-2.22a.5.5 0 0 1 .4-.49l1.86-.28a.5.5 0 0 0 .39-.34c.16-.56.38-1.08.65-1.56a.5.5 0 0 0 .02-.5l-.88-1.64a.5.5 0 0 1 .1-.6L5.48 3.9a.5.5 0 0 1 .6-.1l1.64.88a.5.5 0 0 0 .5-.02c.48-.27 1-.49 1.56-.65a.5.5 0 0 0 .34-.39l.28-1.86ZM12 8.5a3.5 3.5 0 1 0 0 7 3.5 3.5 0 0 0 0-7Z"/>
  <circle cx="12" cy="12" r="3.5" fill="white"/>
</svg>
